<svg width="24" height="24" viewBox="0 0 24 24" fill="none" xmlns="http://www.w3.org/2000/svg">
<path d="M18.9898 12.1439C18.9894 12.1465 18.989 12.1491 18.9886 12.1517C18.9848 12.1768 18.9799 12.2019 18.9741 12.2268C18.9289 12.4227 18.826 12.5964 18.6844 12.7294L13.7063 17.7074C13.3158 18.0979 12.6826 18.0979 12.2921 17.7074C11.9016 17.3169 11.9016 16.6837 12.2921 16.2932L15.5851 13.0003H6C5.44772 13.0003 5 12.5526 5 12.0003C5 11.448 5.44772 11.0003 6 11.0003H15.5869L12.2921 7.70552C11.9016 7.315 11.9016 6.68183 12.2921 6.29131C12.6826 5.90078 13.3158 5.90078 13.7063 6.29131L18.7073 11.2923C18.9394 11.5244 19.0336 11.8422 18.9898 12.1439Z" fill="#FECAC8"/>
</svg>
